<svg id="Capa_1" data-name="Capa 1" xmlns="http://www.w3.org/2000/svg" viewBox="0 0 1156.37 111.61"><path d="M62.89,216.15H86.24Q108.11,271.79,130,327.43H102.43l-27.76-71.1-28.4,71.31H18.5Z" transform="translate(-18.5 -216.15)" fill="#d61b26"/><path d="M193.83,245.62l-19.52,10.91a32.82,32.82,0,0,0-61.24,9.38L101.59,236.6a55.79,55.79,0,0,1,92.24,9Z" transform="translate(-18.5 -216.15)" fill="#d61b26"/><path d="M193.88,298.29a55.77,55.77,0,0,1-49.18,29.47,53.51,53.51,0,0,1-7.65-.53l-11.31-28.94A32.82,32.82,0,0,0,174,287.89Z" transform="translate(-18.5 -216.15)" fill="#d61b26"/><path d="M305.78,307.93c0,1.07-.69,1.6-2.09,1.6h-9.24a2.56,2.56,0,0,1-2.64-1.7l-7.27-18.48a2.57,2.57,0,0,0-2.64-1.7h-28a2.57,2.57,0,0,0-2.64,1.7L244,307.83a2.56,2.56,0,0,1-2.64,1.7h-9.25c-1.4,0-2.09-.53-2.09-1.6l.22-.8,29.28-69.48a2.57,2.57,0,0,1,2.64-1.71h11.45a2.57,2.57,0,0,1,2.64,1.71l29.27,69.48ZM267.92,249.3a1.3,1.3,0,0,0-.88.4,2.57,2.57,0,0,0-.66,1l-9.58,24.8-.22.8c0,1.07.7,1.61,2.1,1.61h18.49c1.39,0,2.09-.54,2.09-1.61l-.22-.8-9.58-24.8C269.09,249.76,268.58,249.3,267.92,249.3Z" transform="translate(-18.5 -216.15)" fill="#d61b26"/><path d="M373.48,241.11q7.14,5.17,7.15,16.22t-7.1,16.06q-7.09,5.12-18.44,5.32-2.41.1-24.21.1c-1.69,0-2.53.71-2.53,2.11v26.51a2,2,0,0,1-.61,1.55,2.42,2.42,0,0,1-1.7.55h-7.38A2.42,2.42,0,0,1,317,309a2,2,0,0,1-.61-1.55V238.05a2,2,0,0,1,.61-1.56,2.46,2.46,0,0,1,1.7-.55h36.43Q366.33,235.94,373.48,241.11ZM329,268.52a2.44,2.44,0,0,0,1.71.55h17.61a73.41,73.41,0,0,0,10.29-.6,13.18,13.18,0,0,0,7.05-3.21q2.91-2.61,2.91-7.93t-2.91-7.93a13.2,13.2,0,0,0-7.05-3.22,73.41,73.41,0,0,0-10.29-.6H330.66a2.49,2.49,0,0,0-1.71.55,2,2,0,0,0-.6,1.56V267A2,2,0,0,0,329,268.52Z" transform="translate(-18.5 -216.15)" fill="#d61b26"/><path d="M410.13,305.82a33.1,33.1,0,0,1-13.54-13.55,43.7,43.7,0,0,1,0-39.11,33.16,33.16,0,0,1,13.54-13.5q8.91-4.92,21.35-4.92t21.41,4.92a33.1,33.1,0,0,1,13.59,13.5,43.7,43.7,0,0,1,0,39.11,33.1,33.1,0,0,1-13.54,13.55q-8.91,4.92-21.46,4.92T410.13,305.82Zm36.48-8.94a23.62,23.62,0,0,0,8.87-10.29,35,35,0,0,0,0-27.71,23.68,23.68,0,0,0-8.87-10.29q-6-3.92-15.13-3.91t-15.08,3.91a23.15,23.15,0,0,0-8.86,10.29,35.56,35.56,0,0,0,0,27.71,23.1,23.1,0,0,0,8.86,10.29q6.06,3.92,15.08,3.92T446.61,296.88Z" transform="translate(-18.5 -216.15)" fill="#d61b26"/><path d="M539,235.94h9.79a2.66,2.66,0,0,1,1.43.35,1.09,1.09,0,0,1,.55,1,2.5,2.5,0,0,1-.55,1.3L521.51,275.9a4.39,4.39,0,0,0-.88,2.61v28.92A2,2,0,0,1,520,309a2.44,2.44,0,0,1-1.71.55H511a2.43,2.43,0,0,1-1.71-.55,2,2,0,0,1-.6-1.55V278.61a4.39,4.39,0,0,0-.88-2.61L479,238.55a2.5,2.5,0,0,1-.55-1.3,1.09,1.09,0,0,1,.55-1,2.63,2.63,0,0,1,1.43-.35H490.7a3.27,3.27,0,0,1,2.75,1.31l19.48,26.5a2.4,2.4,0,0,0,1.65,1,2.13,2.13,0,0,0,1.65-1l20-26.5A3.27,3.27,0,0,1,539,235.94Z" transform="translate(-18.5 -216.15)" fill="#d61b26"/><path d="M576.33,305.82a33.1,33.1,0,0,1-13.54-13.55,43.7,43.7,0,0,1,0-39.11,33.16,33.16,0,0,1,13.54-13.5q8.91-4.92,21.35-4.92t21.41,4.92a33.1,33.1,0,0,1,13.59,13.5,43.7,43.7,0,0,1,0,39.11,33.1,33.1,0,0,1-13.54,13.55q-8.91,4.92-21.46,4.92T576.33,305.82Zm36.48-8.94a23.6,23.6,0,0,0,8.86-10.29,34.88,34.88,0,0,0,0-27.71,23.66,23.66,0,0,0-8.86-10.29q-6-3.92-15.13-3.91t-15.08,3.91a23.15,23.15,0,0,0-8.86,10.29,35.56,35.56,0,0,0,0,27.71,23.1,23.1,0,0,0,8.86,10.29q6,3.92,15.08,3.92T612.81,296.88Z" transform="translate(-18.5 -216.15)" fill="#d61b26"/><path d="M693.05,305.82a33.35,33.35,0,0,1-13.76-13.5,43.09,43.09,0,0,1,0-39.06,33.35,33.35,0,0,1,13.76-13.5q9.08-4.92,21.63-4.92,11.88,0,20.64,4.42A33.66,33.66,0,0,1,749,251.6a2.36,2.36,0,0,1,.33,1.11c0,.74-.55,1.27-1.65,1.61l-8.26,1.9a2.57,2.57,0,0,1-.77.1,2.42,2.42,0,0,1-2.2-1.3q-6.83-10.25-21.79-10.24-9.25,0-15.3,3.91A23.54,23.54,0,0,0,690.46,259a33.35,33.35,0,0,0-2.86,13.81,32.91,32.91,0,0,0,2.86,13.75,23.58,23.58,0,0,0,8.92,10.24q6,3.92,15.3,3.92A29.72,29.72,0,0,0,729.81,297,20.6,20.6,0,0,0,739,285.64a2.34,2.34,0,0,1,2.75-1.61l8.37,1c1.25.2,1.87.73,1.87,1.6a5.27,5.27,0,0,1-.22,1q-4.85,11.55-14,17.32t-23.06,5.77Q702.13,310.74,693.05,305.82Z" transform="translate(-18.5 -216.15)" fill="#d61b26"/><path d="M832.78,307.93c0,1.07-.7,1.6-2.09,1.6h-9.25a2.56,2.56,0,0,1-2.64-1.7l-7.26-18.48a2.57,2.57,0,0,0-2.64-1.7h-28a2.57,2.57,0,0,0-2.64,1.7L771,307.83a2.56,2.56,0,0,1-2.64,1.7h-9.25c-1.39,0-2.09-.53-2.09-1.6l.22-.8,29.28-69.48a2.57,2.57,0,0,1,2.64-1.71h11.45a2.57,2.57,0,0,1,2.64,1.71l29.28,69.48ZM794.92,249.3a1.29,1.29,0,0,0-.88.4,2.37,2.37,0,0,0-.66,1l-9.58,24.8-.22.8c0,1.07.7,1.61,2.09,1.61h18.49c1.4,0,2.09-.54,2.09-1.61l-.22-.8-9.57-24.8C796.09,249.76,795.58,249.3,794.92,249.3Z" transform="translate(-18.5 -216.15)" fill="#d61b26"/><path d="M900.47,241.11q7.15,5.17,7.15,16.22t-7.09,16.06q-7.11,5.12-18.44,5.32-2.43.1-24.21.1c-1.69,0-2.54.71-2.54,2.11v26.51a2,2,0,0,1-.6,1.55,2.46,2.46,0,0,1-1.71.55h-7.37A2.43,2.43,0,0,1,844,309a2,2,0,0,1-.6-1.55V238.05a2,2,0,0,1,.6-1.56,2.47,2.47,0,0,1,1.71-.55h36.43Q893.31,235.94,900.47,241.11ZM856,268.52a2.42,2.42,0,0,0,1.7.55h17.62a73.61,73.61,0,0,0,10.29-.6,13.12,13.12,0,0,0,7-3.21c1.94-1.74,2.92-4.38,2.92-7.93s-1-6.19-2.92-7.93a13.13,13.13,0,0,0-7-3.22,73.61,73.61,0,0,0-10.29-.6H857.65a2.46,2.46,0,0,0-1.7.55,2,2,0,0,0-.61,1.56V267A2,2,0,0,0,856,268.52Z" transform="translate(-18.5 -216.15)" fill="#d61b26"/><path d="M934.76,309a2.46,2.46,0,0,1-1.71.55h-7.37A2.43,2.43,0,0,1,924,309a2,2,0,0,1-.61-1.55V238.05a2,2,0,0,1,.61-1.56,2.47,2.47,0,0,1,1.71-.55h7.37a2.51,2.51,0,0,1,1.71.55,2,2,0,0,1,.6,1.56v69.38A2,2,0,0,1,934.76,309Z" transform="translate(-18.5 -216.15)" fill="#d61b26"/><path d="M1018,236.49a2,2,0,0,1,.61,1.56v5.42A2,2,0,0,1,1018,245a2.42,2.42,0,0,1-1.7.55H992a2.46,2.46,0,0,0-1.7.55,2,2,0,0,0-.61,1.56v59.74a2,2,0,0,1-.6,1.55,2.46,2.46,0,0,1-1.71.55h-7.37a2.43,2.43,0,0,1-1.71-.55,2,2,0,0,1-.6-1.55V247.69a2,2,0,0,0-.61-1.56,2.47,2.47,0,0,0-1.71-.55H951.21a2.44,2.44,0,0,1-1.71-.55,2,2,0,0,1-.6-1.56v-5.42a2,2,0,0,1,.6-1.56,2.49,2.49,0,0,1,1.71-.55h65A2.46,2.46,0,0,1,1018,236.49Z" transform="translate(-18.5 -216.15)" fill="#d61b26"/><path d="M1098,307.93c0,1.07-.7,1.6-2.09,1.6h-9.25a2.56,2.56,0,0,1-2.64-1.7l-7.26-18.48a2.58,2.58,0,0,0-2.65-1.7h-28a2.57,2.57,0,0,0-2.64,1.7l-7.27,18.48a2.56,2.56,0,0,1-2.64,1.7h-9.25c-1.39,0-2.09-.53-2.09-1.6l.22-.8,29.28-69.48a2.57,2.57,0,0,1,2.64-1.71h11.45a2.57,2.57,0,0,1,2.64,1.71l29.28,69.48Zm-37.86-58.63a1.33,1.33,0,0,0-.89.4,2.57,2.57,0,0,0-.66,1l-9.57,24.8-.22.8c0,1.07.7,1.61,2.09,1.61h18.49c1.39,0,2.09-.54,2.09-1.61l-.22-.8-9.57-24.8C1061.35,249.76,1060.84,249.3,1060.18,249.3Z" transform="translate(-18.5 -216.15)" fill="#d61b26"/><path d="M1120,236.49a2,2,0,0,1,.6,1.56v59.64a2,2,0,0,0,.61,1.55,2.42,2.42,0,0,0,1.7.56h49.64a2.43,2.43,0,0,1,1.71.55,2,2,0,0,1,.61,1.55v5.53a2,2,0,0,1-.61,1.55,2.43,2.43,0,0,1-1.71.55h-61.63a2.43,2.43,0,0,1-1.71-.55,2,2,0,0,1-.61-1.55V238.05a2,2,0,0,1,.61-1.56,2.47,2.47,0,0,1,1.71-.55h7.37A2.51,2.51,0,0,1,1120,236.49Z" transform="translate(-18.5 -216.15)" fill="#d61b26"/></svg>