<svg id="Capa_1" data-name="Capa 1" xmlns="http://www.w3.org/2000/svg" viewBox="0 0 1157.98 275.49"><path d="M426.92,302.3V324a52.49,52.49,0,0,1-13.34,1.39c-14.62,0-20.2-4.18-21.69-15.63-5.37,10.65-17.22,16.62-33.44,16.62-21.39,0-33.44-12.73-33.44-30.25,0-20.7,18.91-28.36,45.88-28.36A116,116,0,0,1,389,269.16v-3.88c0-10.95-4-18.91-17.41-18.91-10.85,0-16.52,4.88-17.72,15.23l-25.57-3c1.59-22.19,18.61-33.93,43.19-33.93,38.21,0,43.59,22.19,43.59,40.9v29.76c0,4.87,1.29,7.36,6.47,7.36A34,34,0,0,0,426.92,302.3ZM389,296.23V285.58a76.7,76.7,0,0,0-14.43-1.29c-14.23,0-20.8,3.48-20.8,10.85s4.88,10.94,13.74,10.94C376.76,306.08,384.72,302.4,389,296.23Z" transform="translate(-10.69 -128.96)" fill="#ee781a"/><path d="M585.46,261.8v62.79H559V268.86c0-13.13-4-19.5-13.74-19.5-11.74,0-18.9,9.05-18.9,27.76l-.1-.2v47.67H499.77V268.86c0-13.23-4-19.5-13.73-19.5-11.74,0-18.91,9.05-18.91,27.76v47.47H440.56v-98h23.49l.2,17.91c4.57-12.44,14-19.8,29.45-19.8,16.23,0,25.58,7.06,29.76,18.71,4.88-11.75,14.33-18.71,29.26-18.71C576.2,224.68,585.46,239.9,585.46,261.8Z" transform="translate(-10.69 -128.96)" fill="#ee781a"/><path d="M695.14,282.89H627.67c2.09,14.24,9.85,21.7,22.39,21.7,11.94,0,18.81-4.48,21.3-13.43l22.49,3.48c-4.48,21.1-21,31.84-43.69,31.84-30.95,0-49-21.09-49-50.85,0-29.16,18.7-50.95,48.16-50.95,28.76,0,46.28,19.3,46.28,49.46A71,71,0,0,1,695.14,282.89Zm-67.27-16.81h41.5c-1.1-13.24-8.86-19.81-20-19.81C637.92,246.27,630.16,253.14,627.87,266.08Z" transform="translate(-10.69 -128.96)" fill="#ee781a"/><path d="M736,247c5.47-15.63,17.91-25,36-21.8v28.77c-17.31-3.59-33.23,4.08-33.23,26.47v44.08H712.26V226.57h23.39Z" transform="translate(-10.69 -128.96)" fill="#ee781a"/><path d="M782.83,200.59c0-8.75,7.56-15.82,16.32-15.82,9,0,16.52,7.07,16.52,15.82s-7.57,15.93-16.52,15.93C790.39,216.52,782.83,209.45,782.83,200.59Zm3.08,124v-98h26.67v98Z" transform="translate(-10.69 -128.96)" fill="#ee781a"/><path d="M899.56,322.6A67.32,67.32,0,0,1,878,325.89c-24.09,0-34.93-12.84-34.93-35.13v-41.7H826.42V226.57H843V199.8L869.71,196v30.55h27.76v22.49H869.71v38.11c0,9.86,3.28,15.33,13.33,15.33a36.18,36.18,0,0,0,12.34-2.09Z" transform="translate(-10.69 -128.96)" fill="#ee781a"/><path d="M1010.13,302.3V324a52.46,52.46,0,0,1-13.33,1.39c-14.63,0-20.21-4.18-21.7-15.63-5.37,10.65-17.22,16.62-33.44,16.62-21.39,0-33.43-12.73-33.43-30.25,0-20.7,18.9-28.36,45.87-28.36a116,116,0,0,1,18.11,1.39v-3.88c0-10.95-4-18.91-17.41-18.91-10.85,0-16.52,4.88-17.72,15.23l-25.57-3c1.59-22.19,18.61-33.93,43.19-33.93,38.22,0,43.59,22.19,43.59,40.9v29.76c0,4.87,1.29,7.36,6.47,7.36A34,34,0,0,0,1010.13,302.3Zm-37.92-6.07V285.58a76.67,76.67,0,0,0-14.42-1.29c-14.24,0-20.8,3.48-20.8,10.85s4.87,10.94,13.73,10.94C960,306.08,967.94,302.4,972.21,296.23Z" transform="translate(-10.69 -128.96)" fill="#ee781a"/><path d="M1168.67,261.8v62.79H1142.2V268.86c0-13.13-4-19.5-13.73-19.5-11.75,0-18.91,9.05-18.91,27.76l-.1-.2v47.67H1083V268.86c0-13.23-4-19.5-13.74-19.5-11.74,0-18.91,9.05-18.91,27.76v47.47h-26.57v-98h23.49l.2,17.91c4.58-12.44,14-19.8,29.46-19.8,16.22,0,25.57,7.06,29.75,18.71,4.88-11.75,14.33-18.71,29.26-18.71C1159.42,224.68,1168.67,239.9,1168.67,261.8Z" transform="translate(-10.69 -128.96)" fill="#ee781a"/><path d="M261.94,311.92V221.49a47.32,47.32,0,0,0-23.65-41L160,135.3a47.32,47.32,0,0,0-47.31,0L34.34,180.52a47.3,47.3,0,0,0-23.65,41v90.43a47.32,47.32,0,0,0,23.65,41l78.32,45.21a47.32,47.32,0,0,0,47.31,0l78.32-45.21A47.34,47.34,0,0,0,261.94,311.92Z" transform="translate(-10.69 -128.96)" fill="#ee781a"/><polyline points="70.18 182.38 86.07 145.22 160.24 145.22" fill="none" stroke="#fff" stroke-linecap="round" stroke-linejoin="round" stroke-width="34.44"/><path d="M136.31,195.07q25.62,58.14,51.22,116.27" transform="translate(-10.69 -128.96)" fill="none" stroke="#fff" stroke-linecap="round" stroke-linejoin="round" stroke-width="34.44"/></svg>